<svg width="314" height="369" viewBox="0 0 314 369" fill="none" xmlns="http://www.w3.org/2000/svg">
<circle cx="24.8957" cy="24.8957" r="24.8957" transform="matrix(-0.965926 0.258819 0.258819 0.965926 212.758 163.383)" fill="#503D16"/>
<path d="M191.953 199.601C174.772 229.359 125.64 264.434 60.9476 227.084C-3.74444 189.734 -31.6342 145.001 -67.7909 96.2019" stroke="#4100FA" stroke-width="48.9776"/>
<circle cx="29.3866" cy="29.3866" r="29.3866" transform="matrix(-0.866025 -0.5 -0.5 0.866025 132.273 162.931)" fill="#503D16"/>
<rect width="119.995" height="178.036" rx="26.9377" transform="matrix(-0.866025 -0.5 -0.5 0.866025 125.418 236.028)" fill="#4100FA"/>
<path fill-rule="evenodd" clip-rule="evenodd" d="M108.948 169.888C115.323 175.196 124.794 174.331 130.103 167.956C135.411 161.581 134.546 152.11 128.171 146.802C123.035 142.525 115.889 142.256 110.53 145.646C109.797 143.739 108.582 141.988 106.901 140.589C102.111 136.601 95.2004 136.844 90.7057 140.902C90.6739 140.875 90.6419 140.848 90.6097 140.821C86.8597 137.699 81.2884 138.207 78.166 141.957C75.0435 145.707 75.5523 151.279 79.3023 154.401C79.5359 154.596 79.7766 154.776 80.0233 154.943L79.9815 154.966L84.5065 157.787C86.8346 159.238 89.3738 160.319 92.0334 160.991L94.4127 161.592C97.4699 162.808 100.882 162.742 103.866 161.464C104.54 164.651 106.251 167.642 108.948 169.888Z" fill="black"/>
<g clip-path="url(#clip0_1397_78085)">
<rect x="135.254" y="194.754" width="140.452" height="105.339" rx="3.51131" transform="rotate(-11.5254 135.254 194.754)" fill="#F5F5F7"/>
<rect x="154.977" y="221.193" width="0.877822" height="112.362" transform="rotate(-101.525 154.977 221.193)" fill="#C4C4C4"/>
<rect x="157.957" y="235.815" width="0.877822" height="112.362" transform="rotate(-101.525 157.957 235.815)" fill="#C4C4C4"/>
<rect x="160.941" y="250.438" width="0.877822" height="112.362" transform="rotate(-101.525 160.941 250.438)" fill="#C4C4C4"/>
<rect x="163.922" y="265.06" width="0.877822" height="112.362" transform="rotate(-101.525 163.922 265.06)" fill="#C4C4C4"/>
<rect x="166.902" y="279.682" width="0.877822" height="112.362" transform="rotate(-101.525 166.902 279.682)" fill="#C4C4C4"/>
<rect x="157.578" y="225.142" width="14.0452" height="10.5339" rx="1.75565" transform="rotate(-11.5254 157.578 225.142)" fill="#FFC864"/>
<rect x="159.855" y="236.324" width="14.0452" height="10.5339" rx="1.75565" transform="rotate(-11.5254 159.855 236.324)" fill="#FFC864"/>
<rect x="237.266" y="220.538" width="14.0452" height="22.8235" rx="1.75565" transform="rotate(-11.5254 237.266 220.538)" fill="#FFC864"/>
<rect x="175.34" y="233.166" width="14.0452" height="10.5339" rx="1.75565" transform="rotate(-11.5254 175.34 233.166)" fill="#AF2896"/>
<rect x="180.074" y="256.391" width="14.0452" height="10.5339" rx="1.75565" transform="rotate(-11.5254 180.074 256.391)" fill="#AF2896"/>
<rect x="219.504" y="212.513" width="14.0452" height="22.8235" rx="1.75565" transform="rotate(-11.5254 219.504 212.513)" fill="#AF2896"/>
<rect x="224.238" y="235.737" width="14.0452" height="22.8235" rx="1.75565" transform="rotate(-11.5254 224.238 235.737)" fill="#AF2896"/>
<rect x="193.102" y="241.191" width="14.0452" height="22.8235" rx="1.75565" transform="rotate(-11.5254 193.102 241.191)" fill="#58C1A2"/>
<rect x="190.82" y="230.01" width="14.0452" height="10.5339" rx="1.75565" transform="rotate(-11.5254 190.82 230.01)" fill="#58C1A2"/>
<rect x="250.469" y="206.2" width="14.0452" height="22.8235" rx="1.75565" transform="rotate(-11.5254 250.469 206.2)" fill="#58C1A2"/>
<rect x="204.023" y="215.671" width="14.0452" height="10.5339" rx="1.75565" transform="rotate(-11.5254 204.023 215.671)" fill="#C9CCFF"/>
<rect x="206.305" y="226.853" width="14.0452" height="10.5339" rx="1.75565" transform="rotate(-11.5254 206.305 226.853)" fill="#C9CCFF"/>
<rect x="211.039" y="250.076" width="14.0452" height="10.5339" rx="1.75565" transform="rotate(-11.5254 211.039 250.076)" fill="#C9CCFF"/>
<rect x="213.32" y="261.258" width="14.0452" height="10.5339" rx="1.75565" transform="rotate(-11.5254 213.32 261.258)" fill="#C9CCFF"/>
<rect x="185" y="192.673" width="42.1357" height="3.51131" rx="0.877827" transform="rotate(-11.5254 185 192.673)" fill="#86868B"/>
<rect x="157.352" y="210.854" width="8.77827" height="1.75565" transform="rotate(-11.5254 157.352 210.854)" fill="#86868B"/>
<rect x="172.832" y="207.696" width="8.77827" height="1.75565" transform="rotate(-11.5254 172.832 207.696)" fill="#86868B"/>
<rect x="188.316" y="204.539" width="8.77827" height="1.75565" transform="rotate(-11.5254 188.316 204.539)" fill="#86868B"/>
<rect x="203.797" y="201.383" width="8.77827" height="1.75565" transform="rotate(-11.5254 203.797 201.383)" fill="#86868B"/>
<rect x="219.281" y="198.226" width="8.77827" height="1.75565" transform="rotate(-11.5254 219.281 198.226)" fill="#86868B"/>
<rect x="234.762" y="195.068" width="8.77827" height="1.75565" transform="rotate(-11.5254 234.762 195.068)" fill="#86868B"/>
<rect x="250.246" y="191.911" width="8.77827" height="1.75565" transform="rotate(-11.5254 250.246 191.911)" fill="#86868B"/>
</g>
<rect width="24.4888" height="34.2843" rx="12.2444" transform="matrix(-0.866025 -0.5 -0.5 0.866025 93.8555 195.186)" fill="#503D16"/>
<defs>
<clipPath id="clip0_1397_78085">
<rect x="135.254" y="194.754" width="140.452" height="105.339" rx="3.51131" transform="rotate(-11.5254 135.254 194.754)" fill="white"/>
</clipPath>
</defs>
</svg>
