<svg width="253" height="400" viewBox="0 0 253 400" fill="none" xmlns="http://www.w3.org/2000/svg">
<circle cx="85.6495" cy="254.199" r="22.2277" fill="#FCCDC3"/>
<path d="M93.0781 257.106C119.505 265.784 174.571 264.678 221.732 217.518C268.892 170.357 282.607 125.335 302.512 74.8949" stroke="#F285F5" stroke-width="43.7288"/>
<circle cx="182.5" cy="178.674" r="26.2373" transform="rotate(-45 182.5 178.674)" fill="#FCCDC3"/>
<mask id="mask0_1397_78137" style="mask-type:alpha" maskUnits="userSpaceOnUse" x="103" y="99" width="229" height="229">
<ellipse cx="217.439" cy="213.615" rx="109.322" ry="118.833" transform="rotate(-45 217.439 213.615)" fill="#BCF6EB"/>
</mask>
<g mask="url(#mask0_1397_78137)">
<rect x="168.199" y="240.13" width="107.135" height="142.665" rx="24.0508" transform="rotate(-45 168.199 240.13)" fill="#F285F5"/>
</g>
<ellipse cx="164.201" cy="171.928" rx="18.759" ry="11.7244" transform="rotate(-60 164.201 171.928)" fill="black"/>
<ellipse cx="180.102" cy="154.433" rx="12.7095" ry="7.62567" transform="rotate(-15 180.102 154.433)" fill="black"/>
<rect x="185.98" y="197.613" width="21.8644" height="30.6101" rx="10.9322" transform="rotate(-45 185.98 197.613)" fill="#FCCDC3"/>
<path d="M119.727 265.585L39.2136 252.511C38.047 252.321 36.9464 253.128 36.777 254.298L24.252 340.768C24.0883 341.897 24.8571 342.945 25.9841 343.128L97.6678 354.769C98.7519 354.945 99.795 354.258 100.063 353.193L121.418 268.157C121.717 266.967 120.938 265.782 119.727 265.585Z" fill="#AF2896" stroke="#AF2896" stroke-width="2.35785"/>
<path d="M82.8643 230.625C106.268 232.915 99.6278 272.705 97.0235 282.795" stroke="#AF2896" stroke-width="3.94416"/>
<path d="M84.3594 230.871C63.5406 227.49 55.1389 264.728 54.2678 275.1" stroke="#AF2896" stroke-width="3.94416"/>
<path d="M120.221 246.14L53.3671 270.673C52.2577 271.08 51.7147 272.315 52.1649 273.409L81.3933 344.365C81.8284 345.422 83.031 345.951 84.1029 345.557L143.617 323.718C144.648 323.339 145.203 322.235 144.89 321.184L123.002 247.533C122.653 246.359 121.372 245.718 120.221 246.14Z" fill="#551A30"/>
<path d="M75.1512 232.61C96.5906 223.151 111.186 260.857 114.091 270.868" stroke="#551A30" stroke-width="3.94416"/>
<path d="M76.5703 232.093C56.8119 239.343 68.5775 275.7 73.1266 285.108" stroke="#551A30" stroke-width="3.94416"/>
</svg>
