<svg width="255" height="305" viewBox="0 0 255 305" fill="none" xmlns="http://www.w3.org/2000/svg">
<circle cx="19.5643" cy="19.5643" r="19.5643" transform="matrix(-0.866025 0.5 0.5 0.866025 194.156 89.3262)" fill="#FCCDC3"/>
<circle cx="-22.2206" cy="55.0384" r="19.5643" transform="rotate(15 -22.2206 55.0384)" fill="#FCCDC3"/>
<path d="M181.691 122.909C165.365 141.154 122.904 164.545 66.2012 149.352C9.4985 134.158 -18.2544 97.2955 -21.3615 60.7174" stroke="#4100FA" stroke-width="38.4891"/>
<ellipse cx="22.6938" cy="13.0995" rx="22.6938" ry="13.0995" transform="matrix(-0.987575 0.15715 0.15715 0.987575 95.0898 71.1621)" fill="#503D16"/>
<circle cx="23.0934" cy="23.0934" r="23.0934" transform="matrix(-0.965926 -0.258819 -0.258819 0.965926 107.293 86.1475)" fill="#FCCDC3"/>
<ellipse cx="9.92041" cy="9.78088" rx="9.92041" ry="9.78088" transform="matrix(-0.526033 -0.850464 -0.850464 0.526033 71.0703 91.8994)" fill="#503D16"/>
<ellipse cx="9.92041" cy="9.78088" rx="9.92041" ry="9.78088" transform="matrix(-0.526033 -0.850464 -0.850464 0.526033 78.4727 82.6484)" fill="#503D16"/>
<ellipse cx="9.92041" cy="9.78088" rx="9.92041" ry="9.78088" transform="matrix(-0.526033 -0.850464 -0.850464 0.526033 89.5703 79.874)" fill="#503D16"/>
<ellipse cx="9.92041" cy="9.78088" rx="9.92041" ry="9.78088" transform="matrix(-0.526033 -0.850464 -0.850464 0.526033 101.598 80.7988)" fill="#503D16"/>
<ellipse cx="9.92041" cy="9.78088" rx="9.92041" ry="9.78088" transform="matrix(-0.526033 -0.850464 -0.850464 0.526033 82.1719 89.124)" fill="#503D16"/>
<ellipse cx="9.92041" cy="9.78088" rx="9.92041" ry="9.78088" transform="matrix(-0.526033 -0.850464 -0.850464 0.526033 109 86.3486)" fill="#503D16"/>
<ellipse cx="11.0442" cy="10.8763" rx="11.0442" ry="10.8763" transform="matrix(-0.825257 -0.564757 -0.564757 0.825257 98.5625 80.0996)" fill="#503D16"/>
<rect width="94.2982" height="166.595" rx="21.169" transform="matrix(-0.965926 -0.258819 -0.258819 0.965926 104.547 189.35)" fill="#252525"/>
<mask id="mask0_1397_78195" style="mask-type:alpha" maskUnits="userSpaceOnUse" x="-31" y="60" width="194" height="194">
<circle cx="96.2226" cy="96.2226" r="96.2226" transform="matrix(-0.965926 -0.258819 -0.258819 0.965926 183.715 88.7539)" fill="#BCF6EB"/>
</mask>
<g mask="url(#mask0_1397_78195)">
<rect width="94.2982" height="125.571" rx="21.169" transform="matrix(-0.965926 -0.258819 -0.258819 0.965926 116.957 143.028)" fill="#4100FA"/>
<rect width="25.7381" height="12.1017" rx="1.84533" transform="matrix(-0.904628 -0.426202 -0.426202 0.904628 56.1562 149.396)" fill="#F5F5F7"/>
<rect width="16.3047" height="1.9182" transform="matrix(-0.901731 -0.432297 -0.432297 0.901731 49.75 151.826)" fill="#C4C4C4"/>
</g>
<rect width="19.2445" height="26.9423" rx="9.62226" transform="matrix(-0.965926 -0.258819 -0.258819 0.965926 84.6914 118.445)" fill="#FCCDC3"/>
</svg>
